<?xml version="1.0" encoding="UTF-8" standalone="no"?>
<!-- Created with Inkscape (http://www.inkscape.org/) -->

<svg
   width="166.51683mm"
   height="303.65073mm"
   viewBox="0 0 166.51683 303.65073"
   version="1.1"
   id="svg1"
   xml:space="preserve"
   xmlns="http://www.w3.org/2000/svg"
   xmlns:svg="http://www.w3.org/2000/svg"><defs
     id="defs1" /><g
     id="layer1"
     transform="translate(1311.0032,15.843004)"><path
       style="fill:#f6f6f6;fill-opacity:1"
       d="m -1228.5196,286.59937 c -0.6837,-0.66454 -1.2431,-1.27249 -1.2431,-1.35099 0,-0.21188 -1.5676,-2.18574 -2.6834,-3.37887 -0.838,-0.89617 -1.0348,-0.99422 -1.3951,-0.69521 -0.8185,0.67928 -0.5101,1.75227 0.9035,3.14373 2.2363,2.20136 1.3357,2.58185 -1.1272,0.47623 -1.3829,-1.18223 -2.2561,-2.44491 -3.6992,-5.34904 -1.0682,-2.14953 -1.315,-3.53264 -1.308,-7.32973 0.01,-5.21362 -0.083,-4.77138 0.9598,-4.60222 0.9628,0.15624 2.2562,0.72967 4.6452,2.05933 1.9645,1.09345 2.2632,1.39972 3.1084,3.18775 0.743,1.57179 1.3999,2.0289 1.377,0.95821 -0.01,-0.32743 -0.2386,-1.01204 -0.5147,-1.52136 -0.2762,-0.50932 -0.6346,-1.2237 -0.7965,-1.5875 -0.4305,-0.96748 -2.4128,-2.91042 -2.9693,-2.91042 -0.2634,0 -1.6652,-0.59531 -3.1151,-1.32291 -1.4499,-0.72761 -2.7657,-1.32292 -2.924,-1.32292 -0.1583,0 -1.2022,-0.37736 -2.3199,-0.83858 -1.695,-0.69947 -2.3592,-1.171 -4.0037,-2.84252 -1.9167,-1.94819 -3.6741,-3.25706 -5.5691,-4.1477 -0.5093,-0.23938 -1.3171,-0.77849 -1.7951,-1.19801 -0.478,-0.41953 -0.9794,-0.76277 -1.1142,-0.76277 -0.1348,0 -0.9029,-0.53578 -1.7068,-1.19063 -0.804,-0.65484 -1.6295,-1.19062 -1.8344,-1.19062 -0.5033,0 -2.0161,1.43984 -2.0161,1.91875 0,0.988 0.7028,2.03111 2.2213,3.29669 1.8891,1.57441 5.4935,3.39768 7.4216,3.75411 0.7197,0.13304 1.4388,0.41994 1.5979,0.63754 0.1591,0.21761 0.5823,0.43699 0.9404,0.48751 0.8287,0.11692 0.945,1.17384 0.1219,1.10761 -1.3859,-0.11151 -3.3653,-0.64645 -5.2917,-1.43014 -3.7355,-1.51964 -4.9048,-2.13305 -5.3441,-2.80357 -0.2364,-0.36076 -0.9688,-0.90928 -1.6276,-1.21894 -1.7533,-0.82417 -6.1332,-5.55392 -7.7127,-8.32886 -0.2182,-0.38348 -1.1616,-1.95432 -2.0963,-3.49074 -0.9348,-1.53643 -1.8924,-3.15728 -2.1281,-3.60189 -0.9039,-1.70523 -4.4251,-6.07004 -5.6931,-7.05703 -3.109,-2.42017 -4.1096,-3.3454 -5.4576,-5.04654 -0.7842,-0.9897 -1.5841,-2.17271 -1.7775,-2.62891 -0.1933,-0.45621 -0.8266,-1.36914 -1.4072,-2.02875 -0.5806,-0.6596 -1.5908,-2.00433 -2.245,-2.98829 -0.6541,-0.98395 -1.2916,-1.85224 -1.4167,-1.92952 -0.125,-0.0773 -0.3071,-0.52611 -0.4047,-0.99738 -0.252,-1.21739 -1.3599,-3.52284 -2.5098,-5.22249 -1.3697,-2.02465 -2.3205,-3.97513 -2.6462,-5.42833 -0.3093,-1.38007 -0.7976,-2.51894 -1.5865,-3.69979 -0.2917,-0.43656 -0.7017,-1.16042 -0.9113,-1.60856 -0.2096,-0.44815 -0.5752,-0.97597 -0.8125,-1.17293 -0.6745,-0.55973 -1.457,-2.28036 -1.8462,-4.05958 -0.4125,-1.88545 -1.1021,-4.14565 -1.3899,-4.55531 -0.1097,-0.15614 -0.4207,-0.36571 -0.6911,-0.46571 -0.3915,-0.14478 -0.4679,-0.3834 -0.3747,-1.17132 0.064,-0.54423 -0.051,-1.63397 -0.2554,-2.42164 -0.3347,-1.28695 -0.326,-1.55517 0.086,-2.64583 0.2521,-0.66754 0.7371,-1.6283 1.0778,-2.13502 0.7216,-1.07324 0.8711,-2.13046 0.2255,-1.59464 -0.2167,0.17982 -0.3386,0.41662 -0.2708,0.5262 0.068,0.10958 -0.1262,0.42351 -0.4308,0.69762 -0.5497,0.49451 -0.564,0.48724 -1.8418,-0.93655 -0.9951,-1.10871 -1.4134,-1.86062 -1.8399,-3.3073 -0.8463,-2.87089 -1.0075,-3.60542 -1.1369,-5.18132 -0.093,-1.13721 -0.5332,-2.27757 -2.0043,-5.19712 l -1.8846,-3.74023 0.503,-1.28517 c 0.7355,-1.87941 1.376,-1.86222 3.3742,0.0906 1.4038,1.37188 3.1847,3.87024 6.6996,9.39849 1.1228,1.76596 1.5891,3.08571 1.6012,4.53162 0,0.41457 0.1709,1.12895 0.3722,1.5875 0.2012,0.45856 0.5136,1.22136 0.6941,1.69511 0.1896,0.49736 0.8721,1.26054 1.6151,1.80591 1.6997,1.24774 2.1797,1.89765 3.0142,4.08152 0.3845,1.00628 1.2613,2.76503 1.9485,3.90833 0.6871,1.1433 1.4702,2.66598 1.7402,3.38372 0.5264,1.39959 1.4927,3.58562 2.9454,6.66355 0.4982,1.05545 0.9058,2.09022 0.9058,2.29949 0,0.20928 0.119,0.45409 0.2646,0.54403 0.1455,0.0899 0.2645,0.39936 0.2645,0.68761 0,0.66353 0.9192,2.48051 1.5985,3.15982 0.285,0.28501 0.5182,0.74772 0.5182,1.02826 0,0.28054 0.3166,1.62 0.7035,2.97657 0.4614,1.61771 0.7769,3.55908 0.9167,5.64149 0.2904,4.32321 0.5858,6.50235 0.977,7.20715 0.3809,0.68632 1.2474,1.16417 3.0517,1.68309 1.2146,0.34931 2.2882,1.1066 5.3005,3.73896 0.7107,0.62102 1.5548,1.30772 1.8758,1.526 0.8991,0.61132 3.3144,3.64758 3.3144,4.16647 0,0.12053 0.3523,0.63137 0.783,1.1352 0.4306,0.50382 0.7878,1.05345 0.7937,1.2214 0.01,0.28424 2.524,3.56214 4.3144,5.62538 1.0327,1.19008 3.8538,3.25623 4.175,3.05772 0.6171,-0.38139 0.061,-1.17563 -2.7497,-3.93002 -2.9714,-2.9115 -4.5148,-4.90842 -5.3536,-6.92695 -0.6177,-1.48644 -4.0962,-6.64153 -5.449,-8.07527 -0.6292,-0.6669 -2.1442,-1.97559 -3.3667,-2.90821 -2.0816,-1.58796 -2.2959,-1.84586 -3.3735,-4.05993 -1.6361,-3.36159 -1.5065,-3.88217 0.5089,-2.04376 0.6152,0.56119 1.915,1.39728 2.8885,1.85798 1.0204,0.48289 1.8382,1.05263 1.9311,1.3453 0.258,0.81296 7.8202,8.30648 9.1598,9.07663 0.6706,0.38553 1.414,0.99815 1.652,1.36139 0.7279,1.11096 1.4414,1.63987 3.787,2.8073 1.2397,0.61705 2.7809,1.57783 3.4247,2.13508 0.842,0.72876 1.2994,0.95649 1.6293,0.81126 0.2522,-0.11105 1.0109,-0.45373 1.6858,-0.76151 1.3056,-0.59538 4.8731,-1.81849 7.5187,-2.5778 l 1.6021,-0.45981 1.5729,0.76429 c 2.6795,1.302 4.9945,2.53587 5.4093,2.88305 0.2183,0.18269 1.0395,0.58485 1.8248,0.89368 2.1084,0.82914 3.7011,2.08155 4.3852,3.44839 0.9238,1.84561 1.2782,8.28922 0.8258,15.01577 -0.2287,3.40191 -0.2201,3.50572 0.2905,3.50572 0.8092,0 1.1406,-1.07748 1.5602,-5.07155 0.5134,-4.88702 0.5469,-7.13745 0.1392,-9.34824 -0.6622,-3.58976 -0.8839,-4.17794 -1.9991,-5.30187 -0.5904,-0.59504 -1.5584,-1.61629 -2.1512,-2.26946 -0.5928,-0.65317 -1.4857,-1.40166 -1.9844,-1.66331 -0.9707,-0.50939 -1.7649,-0.94576 -3.7416,-2.05579 -2.0353,-1.1429 -4.1525,-1.74215 -6.8223,-1.93093 -2.082,-0.14723 -2.9137,-0.0813 -4.8449,0.38403 -2.3029,0.55493 -4.4805,0.54199 -4.8332,-0.0287 -0.081,-0.13051 -0.012,-1.12285 0.1516,-2.20519 0.1641,-1.08235 0.3494,-5.87316 0.4119,-10.64624 0.062,-4.77309 0.1584,-9.09506 0.2132,-9.60438 0.055,-0.50933 0.019,-1.53419 -0.08,-2.27747 -0.1172,-0.88009 -0.058,-1.70394 0.17,-2.36215 0.2228,-0.64358 0.404,-3.01211 0.4988,-6.52055 0.1267,-4.68714 0.087,-5.63434 -0.267,-6.34362 -0.318,-0.63731 -0.4117,-1.65022 -0.3981,-4.29884 0.017,-3.25447 0.038,-3.39271 0.3508,-2.27446 0.1831,0.65485 0.646,2.14313 1.0286,3.3073 0.3826,1.16416 0.8615,2.70374 1.0642,3.42128 l 0.3687,1.30461 0.4602,-1.30461 c 0.2531,-0.71754 0.6057,-1.6618 0.7835,-2.09837 0.1778,-0.43656 0.6977,-1.98437 1.1553,-3.43958 0.7727,-2.45734 0.9627,-3.5586 1.5978,-9.26268 0.178,-1.59806 0.5436,-2.82547 1.4876,-4.99329 0.8396,-1.92838 1.1639,-2.96201 0.9853,-3.14065 -0.3227,-0.32265 -1.5055,0.54138 -2.1878,1.59815 -0.2547,0.39447 -1.0703,1.37206 -1.8125,2.17243 -0.7422,0.80036 -1.7035,2.08028 -2.1361,2.84427 -0.511,0.90222 -0.9606,1.38906 -1.2829,1.38906 -0.7323,0 -1.5673,-2.31752 -1.859,-5.15937 -0.1344,-1.30969 -0.358,-2.67891 -0.497,-3.04271 -0.1389,-0.3638 -0.3402,-1.3163 -0.4473,-2.11667 -0.1072,-0.80036 -0.2945,-1.57914 -0.4163,-1.73061 -0.1218,-0.15147 -0.2916,-0.67388 -0.3774,-1.16092 -0.086,-0.48703 -0.286,-1.12837 -0.4449,-1.4252 -0.4468,-0.83499 -0.089,-4.00373 0.5734,-5.0753 0.3067,-0.49622 1.1764,-1.34781 1.9327,-1.89243 3.0199,-2.17475 3.8388,-3.00478 4.8034,-4.86869 0.5276,-1.01945 0.8877,-1.96923 0.8003,-2.11061 -0.2959,-0.47877 -1.1229,-0.26049 -1.564,0.41282 -0.2414,0.36844 -0.5492,0.60176 -0.6839,0.5185 -0.1347,-0.0833 -0.4088,0.24075 -0.6091,0.72003 -0.3555,0.85087 -2.0494,2.43009 -3.3394,3.11332 -0.3546,0.18782 -0.8881,0.5682 -1.1855,0.84528 -0.2974,0.27708 -0.7812,0.46933 -1.075,0.42723 -0.4698,-0.0673 -0.5578,-0.34802 -0.729,-2.3255 -0.1081,-1.24867 -0.079,-3.11066 0.066,-4.18633 0.1435,-1.06556 0.2609,-2.66574 0.2609,-3.55595 0,-1.62037 0.2401,-3.29111 0.946,-6.58308 0.2324,-1.08359 0.3769,-3.29719 0.3769,-5.77208 0,-2.20794 0.1157,-4.23055 0.257,-4.4947 0.1414,-0.26414 0.3301,-1.6553 0.4193,-3.09146 0.089,-1.43615 0.3307,-3.06009 0.5367,-3.60874 0.206,-0.54864 0.3771,-1.50114 0.3803,-2.11666 0,-0.61552 0.2468,-1.65026 0.5412,-2.29942 0.4979,-1.09753 0.5154,-1.38511 0.2491,-4.10104 -0.4962,-5.06 -0.4192,-8.42167 0.2627,-11.46809 0.1728,-0.77197 0.2381,-1.70695 0.145,-2.07773 -0.093,-0.37079 0.027,-1.63877 0.268,-2.817736 0.3014,-1.477832 0.3744,-2.558181 0.2349,-3.478515 -0.3523,-2.325085 -0.1949,-5.010815 0.4991,-8.516873 0.972,-4.910712 1.2141,-6.825667 1.5004,-11.868062 0.1405,-2.473854 0.3929,-5.15276 0.5609,-5.953125 0.3412,-1.625419 0.6397,-4.343682 1.0171,-9.260416 0.1396,-1.819011 0.4363,-4.61698 0.6594,-6.217709 0.2231,-1.600729 0.5156,-3.743854 0.6501,-4.7625 0.1345,-1.018646 0.2711,-3.935677 0.3037,-6.482291 0.033,-2.546615 0.1653,-5.076056 0.2949,-5.620982 0.1296,-0.544925 0.2853,-1.743096 0.3459,-2.662602 0.061,-0.919506 0.2455,-2.02147 0.4109,-2.44881 0.1653,-0.42734 0.4033,-2.979638 0.5289,-5.671773 0.2565,-5.499934 0.4662,-8.485659 0.6782,-9.657291 0.2149,-1.187948 0.6791,-5.424987 0.7102,-6.482292 0.015,-0.509323 -0.058,-2.711979 -0.1615,-4.8947915 -0.1201,-2.5277626 -0.083,-4.689244 0.1036,-5.95312504 0.1607,-1.09140596 0.3832,-2.63921896 0.4945,-3.43958296 0.3121,-2.244539 1.3344,-5.582058 1.864,-6.085417 0.077,-0.07276 0.4719,-0.5787765 0.8787,-1.1244795 0.4068,-0.545703 0.914,-0.992188 1.1273,-0.992188 0.2132,0 0.5864,-0.416718 0.8292,-0.926041 0.2429,-0.509323 0.5518,-0.926042 0.6864,-0.926042 0.1346,0 0.7796,-0.542557 1.4334,-1.205682 1.061,-1.076264 1.278,-1.186247 2.0213,-1.024625 1.5864,0.344914 1.9717,0.598786 2.1515,1.417656 0.097,0.443621 0.2871,0.874506 0.4214,0.957523 0.5716,0.353246 0.063,5.4960535 -0.7838,7.9249205 -0.4844,1.389396 -0.5595,4.028236 -0.1919,6.746875 0.2176,1.609839 -0.4683,11.9098845 -0.9394,14.1066495 -0.16,0.745859 -0.5251,1.895346 -0.8113,2.554416 -0.6068,1.397097 -1.5273,5.699007 -1.5273,7.137532 0,0.546299 -0.1145,1.33846 -0.2545,1.760357 -0.2537,0.764319 -0.5485,3.640357 -1.0686,10.424378 -0.1506,1.964531 -0.4454,4.7625 -0.655,6.217708 -1.0187,7.073064 -1.0614,8.038149 -0.4637,10.457971 0.3046,1.233116 0.6221,3.190573 0.7055,4.349905 0.1562,2.169589 0.4974,4.406151 0.9903,6.491083 0.7161,3.029558 1.0008,5.728576 0.9906,9.392708 -0.01,2.182812 0.1264,4.92125 0.2943,6.085417 0.3648,2.529254 0.4683,31.940762 0.1429,40.613542 -0.2645,7.04774 -0.2689,6.58723 0.088,9.12813 0.6406,4.56567 1.1417,7.14155 1.6305,8.38179 0.2808,0.7123 0.5105,1.50227 0.5105,1.7555 0,0.61872 -2.7858,3.48875 -3.3864,3.48875 -0.5489,0 -1.1115,0.48598 -1.1115,0.96006 0,0.21768 0.4814,0.32506 1.4574,0.32506 1.1656,0 1.6135,-0.13143 2.2377,-0.65665 0.6535,-0.5499 0.9435,-0.62672 1.7838,-0.47254 0.5518,0.10126 1.3945,0.52432 1.8725,0.94013 0.478,0.41581 0.9768,0.75602 1.1084,0.75602 0.1316,0 0.7895,0.47625 1.4621,1.05834 0.6725,0.58208 1.4298,1.05833 1.6829,1.05833 0.2531,0 0.5891,0.12891 0.7466,0.28646 0.4174,0.41738 5.437,2.05464 5.8332,1.90261 0.5475,-0.21008 0.3888,-0.85597 -0.4798,-1.95256 -0.5739,-0.72461 -1.0252,-1.03359 -1.5213,-1.04149 -0.388,-0.006 -1.4997,-0.28417 -2.4705,-0.61775 -2.0614,-0.70835 -3.7738,-2.18255 -4.742,-4.08237 -0.6271,-1.23049 -0.6321,-1.30546 -0.5529,-8.25323 0.074,-6.52771 0.3261,-9.77471 1.1386,-14.68438 0.3426,-2.07026 0.3506,-6.38585 0.041,-22.225002 -0.1608,-8.22777 -0.2972,-10.999015 -0.5647,-11.47349 -0.2237,-0.396633 -0.3844,-1.800658 -0.4392,-3.836458 -0.123,-4.565564 -0.3035,-6.795615 -0.6562,-8.105306 -0.3946,-1.465469 -0.3851,-6.997708 0.016,-9.39308 0.1706,-1.018646 0.3074,-3.102239 0.304,-4.630208 -0.017,-7.735295 -0.3372,-24.419603 -0.472,-24.63782 -0.085,-0.137177 -0.2104,-2.775801 -0.2792,-5.863609 -0.1108,-4.978974 -0.195,-5.823751 -0.7439,-7.466279 -1.0959,-3.279084 -1.3511,-5.184125 -0.9588,-7.157741 0.2833,-1.425305 0.2831,-2.181928 -10e-4,-4.252554 -0.2606,-1.8977249 -0.2738,-2.7912911 -0.053,-3.6240295 0.1608,-0.6078923 0.231,-1.64104 0.156,-2.2958837 -0.1,-0.8709053 0.048,-1.7181153 0.5512,-3.1549793 0.378,-1.08039504 0.6878,-2.449613 0.6884,-3.042708 5e-4,-0.610413 0.2302,-1.454273 0.5291,-1.944645 0.2905,-0.47646 0.5289,-1.012241 0.5297,-1.190625 0,-0.988974 0.6157,-2.358414 1.1395,-2.553146 0.7244,-0.269331 1.2403,-0.08635 1.2403,0.439952 0,0.221916 0.2448,0.799676 0.5441,1.283911 0.4414,0.714265 0.5187,1.170382 0.4092,2.416767 -0.1482,1.687113 0.044,2.289595 0.6164,1.935592 0.3086,-0.190686 0.3106,-0.486095 0.013,-1.904263 -0.1935,-0.92321 -0.5098,-2.061693 -0.7029,-2.529962 -0.762,-1.848598 0.031,-2.397474 0.8475,-0.586656 0.2667,0.591518 0.8801,1.688831 1.3631,2.438473 0.5531,0.858537 0.8837,1.709022 0.8933,2.29795 0.01,0.51423 0.1221,1.41121396 0.2526,1.99329796 0.2163,0.96475604 0.2311,0.912605 0.1667,-0.589818 -0.08,-1.85869496 0.138,-2.09585096 1.2248,-1.33478396 1.1138,0.779976 1.4591,1.96036696 1.8858,6.4461223 0.3842,4.0388743 0.3813,4.1311849 -0.1664,5.35038 -0.3498,0.7786792 -0.5772,1.8809402 -0.6105,2.9603912 -0.029,0.945885 -0.1876,3.189887 -0.3519,4.986671 -0.4126,4.512802 -0.2208,7.945836 0.596,10.666963 0.3642,1.213157 0.8435,3.515428 1.0653,5.116157 0.2217,1.600729 0.5898,4.101042 0.818,5.55625 0.2282,1.455208 0.472,3.479271 0.5417,4.497917 0.1384,2.021012 0.3452,3.150617 1.4534,7.9375 0.4043,1.74625 0.9327,4.246562 1.1742,5.55625 0.2416,1.309687 0.5419,2.917031 0.6675,3.571875 0.1256,0.654843 0.2234,1.369218 0.2173,1.5875 -0.019,0.680112 0.601,4.301283 0.9738,5.688541 0.2486,0.925048 0.4003,4.068215 0.5046,10.451042 0.097,5.92392 0.2757,9.824691 0.5098,11.1125 0.4352,2.395274 1.4174,7.090968 1.8262,8.73125 0.1633,0.654844 0.3821,4.405314 0.4863,8.334374 0.1801,6.78914 0.4174,9.22854 1.0605,10.90118 0.6897,1.79373 0.8607,4.06082 1.1338,15.02799 0.047,1.89177 0.1768,4.39209 0.2882,5.55625 0.1115,1.16417 0.1932,2.35479 0.1816,2.64584 -0.081,2.02838 -0.022,8.94299 0.078,9.10423 0.2113,0.34193 -0.5904,2.96273 -1.0677,3.49008 -0.5961,0.65876 -2.1065,0.65341 -3.1967,-0.0113 -0.4617,-0.28154 -1.3068,-1.14444 -1.8779,-1.91755 -1.1208,-1.51722 -1.9127,-2.29003 -1.9127,-1.86661 0,0.53795 0.7768,2.0974 1.7475,3.50796 1.3616,1.9787 1.8988,3.51605 2.239,6.40712 0.2551,2.16764 0.2247,2.77132 -0.2615,5.19332 -0.3025,1.50732 -0.55,2.85505 -0.55,2.99497 0,0.45224 1.1274,0.10183 1.4281,-0.44387 0.1604,-0.29104 0.3605,-0.5887 0.4447,-0.66146 0.2296,-0.19852 1.0376,-1.89691 1.0376,-2.18105 0,-0.13622 0.2247,-0.44535 0.4993,-0.68695 0.5279,-0.46445 1.0882,-2.3815 1.0882,-3.72315 0,-0.95609 0.5588,-0.88184 1.0225,0.13586 0.5219,1.14557 0.3299,2.89577 -0.6413,5.84481 -1.0559,3.20611 -1.2905,4.19828 -1.808,7.64542 -0.1986,1.32261 -0.4795,2.63229 -0.6242,2.91042 -0.3806,0.73105 -0.5842,4.39626 -0.6382,11.48589 -0.057,7.48892 -0.065,7.45047 3.1409,14.54676 1.7689,3.91511 2.3444,15.02044 1.1452,22.09803 -0.1726,1.01865 -0.5035,3.07712 -0.7353,4.57439 -0.2318,1.49726 -0.5503,2.88506 -0.7077,3.084 -0.2678,0.33845 -3.6098,2.08463 -7.1121,3.7161 -0.8439,0.39308 -2.0936,1.14158 -2.7771,1.66334 -0.6835,0.52176 -2.1958,1.5674 -3.3605,2.32364 -1.1648,0.75624 -2.475,1.69183 -2.9115,2.0791 -0.4366,0.38726 -1.151,0.92935 -1.5875,1.20464 -1.0119,0.63806 -1.8055,1.96709 -1.5865,2.65691 0.2504,0.78893 0.7106,0.63082 1.5282,-0.52501 0.8781,-1.24143 3.2548,-3.09816 5.2386,-4.09259 0.7888,-0.39543 1.7915,-0.98884 2.228,-1.3187 2.8106,-2.1236 7.8262,-4.65019 9.2312,-4.65019 0.727,0 2.2419,0.97733 2.6502,1.70977 0.1592,0.28552 0.5593,0.97094 0.8892,1.52314 l 0.5998,1.004 1.5169,-0.16313 c 3.0718,-0.33036 7.5953,-3.1083 9.3772,-5.75861 0.6,-0.89236 2.1786,-2.69403 3.5082,-4.00371 2.3665,-2.33117 3.7129,-4.08878 5.3709,-7.01146 0.4541,-0.80037 1.0407,-1.64701 1.3035,-1.88143 0.2629,-0.23442 0.987,-1.07913 1.6091,-1.87713 0.6222,-0.798 1.422,-1.6065 1.7773,-1.79668 0.3554,-0.19018 0.9677,-0.83375 1.3608,-1.43017 1.0257,-1.55653 3.9844,-4.79809 5.0263,-5.50697 0.9302,-0.63284 2.2138,-2.88258 2.2138,-3.87999 0,-0.3173 0.2842,-1.25793 0.6317,-2.09029 0.3474,-0.83236 0.7199,-2.04917 0.8279,-2.70401 0.1079,-0.65484 0.5898,-1.96453 1.0709,-2.91042 0.481,-0.94588 0.9931,-2.03292 1.1378,-2.41563 0.1448,-0.38271 0.7959,-1.52694 1.447,-2.54273 1.4104,-2.20035 4.9389,-8.46513 4.9389,-8.76893 0,-0.31808 0.9184,-1.08937 1.2972,-1.08937 0.2305,0 0.3073,0.41747 0.2558,1.38906 -0.056,1.04945 0.017,1.38906 0.2967,1.38906 0.2637,0 0.4662,-0.66287 0.7025,-2.30008 0.3945,-2.73235 0.9098,-3.82414 2.7234,-5.76971 1.8112,-1.94296 2.8247,-3.75871 3.3343,-5.97339 1.5573,-6.76845 2.7945,-9.48883 3.7511,-8.24796 0.3218,0.41745 1.0498,4.55492 1.4015,7.96564 0.2565,2.48708 0.2412,2.65477 -0.3306,3.62171 -1.1869,2.00692 -3.4789,5.70738 -4.4822,7.23658 -0.5629,0.85792 -0.9511,1.63183 -0.8628,1.71979 0.2015,0.20054 0.5984,-0.30933 2.8383,-3.64558 1.2231,-1.82186 1.9575,-2.67679 2.2995,-2.67679 0.6924,0 0.8339,0.32104 0.8728,1.98007 0.044,1.88184 -0.054,2.01183 -6.3757,8.47097 -2.4038,2.45596 -3.9337,4.92641 -4.5483,7.34431 -0.1568,0.6173 -0.3976,1.36048 -0.5349,1.65153 -1.3106,2.77736 -3.3001,8.46844 -3.5611,10.18645 -0.3179,2.09329 -1.7112,5.35409 -2.6613,6.22843 -0.4807,0.44246 -1.0746,1.30567 -1.3197,1.91823 -0.2451,0.61257 -0.5518,1.11376 -0.6815,1.11376 -0.1297,0 -0.2359,0.11558 -0.2359,0.25685 0,0.14127 -0.3424,0.76634 -0.761,1.38906 -0.4186,0.62272 -1.443,2.36253 -2.2764,3.86626 -0.8335,1.50372 -1.8442,3.11107 -2.2461,3.57187 -0.4019,0.46081 -1.0007,1.37362 -1.3307,2.02846 -0.33,0.65484 -1.0604,1.77173 -1.6231,2.48196 -0.5627,0.71023 -1.0231,1.39062 -1.0231,1.51198 0,0.12136 -0.3595,0.73088 -0.799,1.3545 -0.4394,0.62362 -1.4049,2.02682 -2.1454,3.11823 -0.7406,1.0914 -1.7862,2.52015 -2.3236,3.175 -0.5374,0.65484 -1.2347,1.60734 -1.5496,2.11666 -0.3149,0.50933 -1.8267,2.17306 -3.3597,3.6972 -1.533,1.52413 -2.7873,2.86869 -2.7873,2.98791 0,0.26281 -2.1655,3.19993 -2.4528,3.32677 -0.1121,0.0495 -0.9034,0.67457 -1.7585,1.38906 -0.8551,0.71448 -1.635,1.29906 -1.7331,1.29906 -0.098,0 -0.7357,0.46999 -1.417,1.04442 -0.6812,0.57443 -1.6825,1.22989 -2.225,1.45659 -0.5426,0.22669 -1.1795,0.70669 -1.4154,1.06666 -0.764,1.16601 -6.037,4.899 -6.9201,4.899 -0.8807,0 -0.7443,-0.41966 0.6766,-2.08074 0.7015,-0.82012 1.4606,-1.76445 1.687,-2.0985 0.2263,-0.33405 0.9516,-0.94989 1.6117,-1.36853 0.6872,-0.43578 1.495,-1.26418 1.8898,-1.93784 1.1751,-2.00504 0.212,-2.76469 -1.4953,-1.17949 -1.4578,1.35356 -2.1074,1.87756 -3.5192,2.83868 -0.7245,0.49319 -1.3767,0.96409 -1.4495,1.04646 -0.5781,0.65438 -5.3645,3.09787 -7.9375,4.05214 -0.2183,0.081 -1.4421,0.99089 -2.7195,2.02209 -2.6319,2.12461 -3.7575,2.78388 -4.359,2.55307 -0.5761,-0.22105 -3.2427,2.54772 -3.2331,3.35694 0.01,0.56888 0.046,0.55636 0.7276,-0.23456 0.8816,-1.02242 2.016,-1.6094 3.5369,-1.83019 0.6338,-0.092 1.7475,-0.33591 2.4749,-0.54202 1.2046,-0.34132 1.3521,-0.33436 1.6536,0.078 0.1821,0.249 0.3329,0.63834 0.3351,0.86518 0,0.22685 0.1755,0.88871 0.3852,1.47079 0.684,1.89842 0.4396,5.11674 -0.5725,7.54062 -0.5326,1.27542 -3.0565,5.00689 -3.965,5.86198 -0.6815,0.64147 -2.5472,1.81094 -2.889,1.81094 -0.3834,0 0.3186,-1.22623 1.0474,-1.82971 1.4667,-1.21446 1.9718,-1.87351 1.8356,-2.39461 -0.2655,-1.0152 -0.8454,-0.70765 -2.8866,1.53098 -3.5683,3.91331 -4.5078,4.81001 -5.0396,4.81001 -0.283,0 -1.0739,-0.54372 -1.7576,-1.20825 z m 31.1683,-41.04004 c 1.0187,-0.21331 2.4754,-0.73642 3.2372,-1.16248 0.7618,-0.42606 1.513,-0.77465 1.6694,-0.77465 0.5016,0 4.7847,-3.74289 5.5077,-4.81303 0.384,-0.56844 1.244,-1.71235 1.911,-2.54202 0.9673,-1.20305 3.682,-5.64024 3.682,-6.01811 0,-0.21216 4.038,-6.81476 5.3869,-8.80823 0.8208,-1.21294 1.4923,-2.36107 1.4923,-2.55138 0,-0.19032 0.1625,-0.40839 0.3611,-0.4846 0.1986,-0.0762 0.8125,-0.68947 1.3643,-1.36279 0.7452,-0.9095 0.9263,-1.30103 0.7044,-1.52298 -0.5396,-0.53961 -1.5435,0.21031 -2.8028,2.09379 -0.662,0.98999 -1.8088,2.63341 -2.5485,3.65206 -0.7398,1.01865 -1.4172,2.03068 -1.5053,2.24896 -0.088,0.21828 -0.4974,0.89457 -0.9094,1.50288 -0.4121,0.6083 -0.7492,1.18068 -0.7492,1.27195 0,0.0913 -0.5358,0.93248 -1.1906,1.86936 -0.6549,0.93687 -1.1907,1.76973 -1.1907,1.85078 0,0.52113 -3.1391,4.76451 -4.2566,5.75397 -1.2797,1.13309 -6.9301,4.41981 -7.5984,4.41981 -0.3852,0 -3.6906,2.24277 -4.4344,3.0088 -1.1885,1.22413 -1.5131,3.37987 -0.4432,2.94363 0.2534,-0.10334 1.2942,-0.36241 2.3128,-0.57572 z m -41.2592,-2.7806 c 0.2135,-0.67271 -0.7139,-1.60861 -1.3516,-1.36391 -0.3857,0.14802 -0.5372,1.4368 -0.2076,1.76641 0.4088,0.40875 1.3814,0.15767 1.5592,-0.4025 z m 14.404,-18.81619 c 0,-0.7696 1.5753,-2.81672 2.3044,-2.99453 1.2798,-0.31214 2.8389,-1.58056 4.1926,-3.41099 0.7195,-0.9729 1.5875,-2.02491 1.9288,-2.3378 0.3413,-0.31289 0.8038,-0.92608 1.0278,-1.36264 0.224,-0.43657 0.7183,-1.03188 1.0985,-1.32292 0.8936,-0.6841 3.7226,-3.64408 3.7299,-3.9026 0.011,-0.38218 -0.7172,-0.19315 -1.5284,0.39687 -0.4501,0.32742 -1.3904,0.99898 -2.0896,1.49235 -1.733,1.22282 -3.6297,3.07002 -4.7841,4.65921 -1.504,2.07039 -3.5126,4.20435 -4.2665,4.53288 -1.4493,0.6316 -3.2116,3.23158 -2.8424,4.19362 0.1881,0.49015 1.229,0.53804 1.229,0.0566 z m -5.5562,-1.67339 c 0,-0.21985 -0.3274,-0.89743 -0.7276,-1.50574 -0.4002,-0.6083 -1.0051,-1.65848 -1.3443,-2.33374 -0.732,-1.45738 -1.6029,-2.32619 -3.2198,-3.21232 -1.181,-0.64721 -4.591,-1.46951 -6.8792,-1.65884 -1.473,-0.12189 -3.4395,0.12702 -3.4395,0.43536 0,0.33349 0.6283,0.44552 5.8208,1.03796 1.2369,0.14113 2.5596,0.32267 2.9394,0.40342 0.8843,0.18806 1.8512,1.24106 2.6008,2.83239 0.3255,0.69083 1.0398,1.64333 1.5874,2.11667 0.5476,0.47333 1.1503,1.15826 1.3393,1.52206 0.5632,1.08431 1.3227,1.29261 1.3227,0.36278 z m -10.8479,-1.39239 c 0,-0.9515 -3.6483,-1.94798 -4.8254,-1.318 -0.2565,0.13726 -0.4663,0.43721 -0.4663,0.66657 0,0.32791 0.1853,0.38225 0.8673,0.25431 0.5612,-0.10529 1.3782,0.021 2.3151,0.35788 1.8218,0.65506 2.1093,0.66041 2.1093,0.0392 z m 26.3235,-1.54834 c 0.5144,-1.01594 1.7262,-2.48486 3.6562,-4.43177 3.5641,-3.59546 3.8505,-3.98805 3.3063,-4.53222 -0.3539,-0.35389 -0.6668,-0.14078 -2.8397,1.93409 -2.2374,2.13649 -4.7818,5.40723 -4.7818,6.14701 0,0.16745 -0.1916,0.597 -0.4259,0.95456 -0.4097,0.62533 -0.3542,1.44794 0.098,1.44794 0.1197,0 0.5639,-0.68382 0.9871,-1.51961 z m -23.3025,0.30068 c 0.2302,-0.0883 0.4185,-0.30453 0.4185,-0.48044 0,-0.38411 -1.9662,-1.53789 -2.2082,-1.29583 -0.093,0.0934 -0.3788,-0.007 -0.6344,-0.22389 -0.6248,-0.52931 -3.679,-1.80799 -4.3185,-1.80799 -0.6071,0 -1.5701,0.89257 -1.5701,1.45521 0,0.47884 0.6124,0.5146 1.3136,0.0767 0.4341,-0.27113 0.849,-0.15394 2.7084,0.76512 3.4546,1.70754 3.6237,1.76708 4.2907,1.51111 z m 28.6673,-1.62534 c 0.8013,-0.83674 1.9764,-2.06144 2.6114,-2.72156 0.6349,-0.66011 1.1544,-1.33769 1.1544,-1.50574 0,-0.7439 -0.5911,-0.52149 -1.7709,0.66628 -2.9426,2.96245 -4.3145,4.47973 -4.3145,4.77171 0,0.713 0.9544,0.21488 2.3196,-1.21069 z m -17.5794,-5.68854 c 0.079,-0.32742 0.055,-1.07156 -0.052,-1.65364 -0.1075,-0.58209 -0.1564,-1.77271 -0.1087,-2.64584 0.048,-0.87312 0.1931,-4.62359 0.3233,-8.33437 0.1301,-3.71078 0.3036,-7.28266 0.3855,-7.9375 0.082,-0.65485 0.2102,-3.39328 0.2851,-6.08542 0.075,-2.69213 0.2605,-5.6687 0.4125,-6.61458 0.5983,-3.72278 0.6027,-4.56677 0.035,-6.61899 -0.3014,-1.08898 -0.6173,-2.81341 -0.7019,-3.83205 -0.173,-2.08287 -0.336,-2.77813 -0.6513,-2.77813 -0.3262,0 -0.5346,1.02393 -0.5386,2.64668 0,1.53606 -0.7027,4.35771 -1.4255,5.75545 -0.6469,1.2511 -0.5238,3.21283 0.3908,6.22448 0.7648,2.51807 0.8238,3.00319 0.8599,7.06922 0.021,2.4011 -0.072,6.92547 -0.2074,10.05417 -0.3128,7.22793 -0.3424,13.08086 -0.072,14.35365 0.2331,1.09915 0.8425,1.32596 1.0663,0.39687 z m 19.068,-74.92487 c 0.089,-0.3537 0.042,-0.95676 -0.1036,-1.34014 -0.1457,-0.38337 -0.265,-1.04232 -0.265,-1.46432 0,-0.422 -0.1698,-1.27746 -0.3774,-1.90101 -0.6152,-1.84789 -0.7257,-2.78356 -0.8209,-6.95455 -0.1986,-8.69655 -0.6004,-11.98018 -1.9282,-15.75745 -0.536,-1.52504 -1.8263,-4.2186 -2.0207,-4.2186 -0.1949,0 0.1835,1.97156 0.4414,2.30018 0.3119,0.39733 0.8646,2.41074 1.5375,5.6003 0.3873,1.83605 0.523,3.5125 0.5245,6.4823 10e-4,2.20317 0.1288,4.77967 0.2838,5.72556 0.155,0.94588 0.384,2.73182 0.5088,3.96875 0.2437,2.4148 1.5646,8.20208 1.8721,8.20208 0.1025,0 0.2589,-0.28939 0.3477,-0.6431 z m -42.3097,-1.01054 c 0.2322,-1.00361 0.3868,-2.54363 0.6772,-6.74954 0.1534,-2.22065 0.4517,-4.52757 0.663,-5.12649 0.2113,-0.59892 0.3842,-1.71428 0.3842,-2.47857 0,-0.7643 0.1786,-1.81707 0.3969,-2.33949 0.2407,-0.57612 0.3969,-1.78394 0.3969,-3.06967 0,-2.04354 0.3322,-3.43633 1.212,-5.08176 0.2065,-0.38625 0.3707,-0.92204 0.3649,-1.19062 -0.03,-1.38901 -2.7202,5.69927 -3.028,7.97832 -0.098,0.72761 -0.3489,1.86304 -0.5569,2.5232 -0.2081,0.66015 -0.4498,2.56515 -0.5373,4.23333 -0.087,1.66818 -0.1992,3.39024 -0.2482,3.82681 -0.3254,2.89801 -0.4276,8.06979 -0.1595,8.06979 0.1634,0 0.3591,-0.26789 0.4348,-0.59531 z m 29.733,-46.894084 c 0.292,-0.807431 0.2519,-1.228921 -0.3213,-3.373437 -1.3061,-4.886427 -1.1965,-6.144885 0.7063,-8.110041 0.6496,-0.670914 1.3357,-1.662013 1.5247,-2.202443 0.4832,-1.381838 -0.1297,-2.060109 -1.8615,-2.060109 -1.048,0 -1.3479,0.127252 -2.0263,0.859896 -1.1254,1.215393 -1.4251,2.084929 -1.418,4.113491 0.01,1.761842 0.5207,4.024132 1.6068,7.065155 0.3118,0.873125 0.6096,2.16009 0.6616,2.859922 0.1507,2.024091 0.5844,2.35008 1.1277,0.847566 z m -16.5079,-2.119988 c 0.9814,-2.484315 1.0389,-5.568511 0.1686,-9.04676 -0.7308,-2.921313 -1.0212,-3.396392 -1.9353,-3.16695 -0.511,0.128252 -0.7437,0.440554 -0.9939,1.334218 -0.3665,1.309052 -0.3088,1.600074 0.8711,4.3972 0.7912,1.875629 0.8371,2.168522 0.8385,5.344658 7e-4,1.848155 0.073,3.276905 0.1604,3.175 0.087,-0.101906 0.4882,-1.018721 0.8906,-2.037366 z m 24.4958,-1.653646 c 0.491,-1.088056 0.5465,-1.565507 0.4133,-3.556567 -0.085,-1.264888 -0.3326,-2.812701 -0.5509,-3.439584 -0.2184,-0.626882 -0.3987,-1.486514 -0.4009,-1.910291 -0.01,-1.111903 -1.0711,-2.767546 -2.6237,-4.076752 -0.8311,-0.700788 -1.3489,-1.350184 -1.3489,-1.691792 0,-0.527067 -0.025,-0.532075 -0.5004,-0.101509 -0.7792,0.705134 -0.3776,1.731679 1.6425,4.199068 1.5138,1.849031 2.0809,3.883051 2.1558,7.733156 0.054,2.770831 0.2338,4.101042 0.5545,4.101042 0.05,0 0.3468,-0.565547 0.6587,-1.256771 z m -31.7631,-1.505739 c 0,-0.500735 0.1025,-0.973778 0.2278,-1.051207 0.1252,-0.07743 0.2897,-0.913155 0.3655,-1.857168 0.094,-1.167672 0.3512,-2.080532 0.8053,-2.855438 0.7813,-1.333106 1.048,-2.983052 0.4823,-2.983052 -0.4221,0 -0.5044,0.133669 -1.6284,2.645833 -0.7057,1.577359 -1.1366,3.135417 -1.3535,4.894792 -0.027,0.218281 0.046,0.783828 0.1622,1.25677 0.287,1.168698 0.9388,1.133615 0.9388,-0.05053 z m 5.5857,-33.014075 c -0.3155,-3.417353 -0.363,-6.874203 -0.1467,-10.65779 0.1313,-2.297676 0.6176,-6.486222 0.7843,-6.75596 0.068,-0.110257 0.1817,-1.790427 0.2523,-3.733712 0.071,-1.943285 0.3034,-4.674097 0.5174,-6.068471 0.4076,-2.65643 0.3438,-3.551792 -0.2701,-3.787367 -0.5267,-0.202114 -1.1,1.051483 -1.5872,3.471136 -0.3036,1.507588 -0.4463,4.285865 -0.5336,10.392082 -0.066,4.583906 -0.2119,10.298906 -0.3252,12.7 -0.1853,3.926641 -0.1543,4.538558 0.3082,6.085417 0.2829,0.945885 0.5614,1.888529 0.6191,2.094763 0.078,0.279871 0.181,0.298755 0.4053,0.07446 0.2243,-0.224298 0.2182,-1.191752 -0.024,-3.814555 z m 18.6809,-6.755186 c -0.082,-2.000912 -0.2975,-4.05474 -0.4789,-4.564063 -0.2092,-0.587524 -0.3375,-2.540827 -0.3509,-5.343422 -0.015,-3.123921 -0.1168,-4.513271 -0.3475,-4.744861 -0.5012,-0.502982 -0.6732,-0.115656 -0.6278,1.413859 0.023,0.76911 0.084,3.255924 0.1367,5.526252 0.054,2.335691 0.2233,4.367134 0.3902,4.67896 0.1622,0.3031 0.2949,1.576862 0.2949,2.830582 0,2.094256 0.441,3.840714 0.9698,3.840714 0.089,0 0.095,-1.63711 0.013,-3.638021 z m -12.3614,-58.869792 c 0,-0.553554 -0.5177,-0.06121 -1.1188,1.058333 -0.4864,0.906035 -0.6363,1.504716 -0.537,2.145217 0.1333,0.859443 0.1625,0.824894 0.8963,-1.058333 0.4172,-1.070729 0.759,-2.036076 0.7595,-2.145217 z"
       id="path2" /></g></svg>
